:version 1.10
:name ASF
:units
  mass 1
  length 1
  angle deg
:documentation
  ASF file generated by Kaydara
:root
  axis xyz
  order  tx ty tz rx ry rz
  position 0 0 0
  orientation 0 0 0
:bonedata
  begin
    id 1
    name RightUpLegDummy
    direction -0.718183 -0.695806 0.00816078
    length 4.904
    axis 0 0 0 xyz
  end
  begin
    id 2
    name RightUpLeg
    direction -0.0736652 -0.994202 0.0783343
    length 17.4976
    axis -2.72909 -3.00389 -4.00133 xyz
    dof rx ry rz
  end
  begin
    id 3
    name RightLeg
    direction -0.0389037 -0.994596 -0.0962598
    length 16.5821
    axis 3.95836 -18.5909 -4.46993 xyz
    dof rx ry rz
  end
  begin
    id 4
    name RightFoot
    direction -0.311643 -0.412678 0.855906
    length 3.77069
    axis -1.99483 -18.8351 -3.27644 xyz
    dof rx ry rz
  end
  begin
    id 5
    name RightToes
    direction -0.317852 0.0389852 0.947339
    length 3.85082
    axis -2.00228 -18.1713 -3.25211 xyz
    dof rx ry rz
  end
  begin
    id 6
    name SpineDummy
    direction 8.3039e-015 1 4.44677e-016
    length 4.6813
    axis 0 0 0 xyz
  end
  begin
    id 7
    name Spine
    direction -0.000262373 0.999988 0.00493267
    length 10.1015
    axis -0.00246081 0.00062579 0.0150362 xyz
    dof rx ry rz
  end
  begin
    id 8
    name Spine1
    direction 0 0 0
    length 0
    axis -0.00349562 0.000650293 0.0196666 xyz
    dof rx ry rz
  end
  begin
    id 9
    name HEadDummy
    direction -0.000343232 0.999999 0.00123745
    length 3.43865
    axis -0.00349562 0.000650293 0.0196666 xyz
  end
  begin
    id 10
    name HEad
    direction -0.0461221 0.980933 0.188796
    length 5.12695
    axis -0.00351404 -7.04812 0.0199272 xyz
    dof rx ry rz
  end
  begin
    id 11
    name LeftShoulder1Dummy
    direction 0.998904 -0.0399089 -0.0244534
    length 3.5433
    axis -0.00349562 0.000650293 0.0196666 xyz
  end
  begin
    id 12
    name LeftShoulder1
    direction 0.99951 1.64443e-005 0.0312999
    length 4.05031
    axis -0.00349562 0.000650293 0.0196666 xyz
    dof rx ry rz
  end
  begin
    id 13
    name LeftArm
    direction 0.984791 0.0515299 0.165927
    length 12.9126
    axis -64.823 -10.7743 5.20463 xyz
    dof rx ry rz
  end
  begin
    id 14
    name LeftForeArm
    direction 0.984968 0.0534808 0.16425
    length 10.8596
    axis -30.0462 -7.70601 1.87451 xyz
    dof rx ry rz
  end
  begin
    id 15
    name LeftHand
    direction 0.975871 0.0289682 0.216418
    length 6.62295
    axis -20.1348 -6.98077 1.86072 xyz
    dof rx ry rz
  end
  begin
    id 16
    name RightShoulderDummy
    direction -0.998877 -0.0405946 -0.0244307
    length 3.5433
    axis -0.00349562 0.000650293 0.0196666 xyz
  end
  begin
    id 17
    name RightShoulder
    direction -0.998933 -0.0249743 -0.0388558
    length 4.05031
    axis -0.0205316 -4.02113 1.41395 xyz
    dof rx ry rz
  end
  begin
    id 18
    name RightArm
    direction -0.997559 0.068664 0.0127103
    length 12.9638
    axis -67.3882 1.84188 -6.15987 xyz
    dof rx ry rz
  end
  begin
    id 19
    name RightForeArm
    direction -0.991508 0.0912848 0.0926241
    length 10.8312
    axis -22.1975 3.41087 -4.28711 xyz
    dof rx ry rz
  end
  begin
    id 20
    name RightHand
    direction -0.989262 0.0600788 0.133232
    length 6.57864
    axis -12.2911 2.17515 -4.39675 xyz
    dof rx ry rz
  end
  begin
    id 21
    name LeftUpLegDummy
    direction 0.718183 -0.695806 0.00816078
    length 4.904
    axis 0 0 0 xyz
  end
  begin
    id 22
    name LeftUpLeg
    direction 0.0831398 -0.99469 0.0606531
    length 17.4976
    axis -1.71016 2.29552 4.63832 xyz
    dof rx ry rz
  end
  begin
    id 23
    name LeftLeg
    direction 0.0498442 -0.991778 -0.117862
    length 16.5821
    axis 5.13757 15.5727 5.13348 xyz
    dof rx ry rz
  end
  begin
    id 24
    name LeftFoot
    direction 0.269026 -0.433896 0.85986
    length 3.77069
    axis -0.576502 15.6961 4.10267 xyz
    dof rx ry rz
  end
  begin
    id 25
    name LeftToes
    direction 0.277311 0.0251143 0.960452
    length 3.85048
    axis -0.576502 15.6961 4.10267 xyz
    dof rx ry rz
  end
:hierarchy
  begin
    root RightUpLegDummy SpineDummy LeftUpLegDummy
    RightUpLegDummy RightUpLeg
    RightUpLeg RightLeg
    RightLeg RightFoot
    RightFoot RightToes
    SpineDummy Spine
    Spine Spine1
    Spine1 HEadDummy LeftShoulder1Dummy RightShoulderDummy
    HEadDummy HEad
    LeftShoulder1Dummy LeftShoulder1
    LeftShoulder1 LeftArm
    LeftArm LeftForeArm
    LeftForeArm LeftHand
    RightShoulderDummy RightShoulder
    RightShoulder RightArm
    RightArm RightForeArm
    RightForeArm RightHand
    LeftUpLegDummy LeftUpLeg
    LeftUpLeg LeftLeg
    LeftLeg LeftFoot
    LeftFoot LeftToes
  end

:SAMPLES-PER-SECOND 30
:FULLY-SPECIFIED
:DEGREES
98
root  -1.61494 6.15129 14.8774 -48.3971 -1.27329 2.5921
RightUpLeg  -83.826 -6.26018 1.43161
RightLeg  86.1827 15.7919 -8.01944
RightFoot  30.9368 2.83895 -7.30703
RightToes  5.82077e-011 -3.18055e-015 -2.98177e-016
Spine  29.8596 3.55543 2.6301
Spine1  20.8383 1.33589 2.54825
HEad  -10.1203 0.224625 19.8501
LeftShoulder1  -3.88251e-019 9.70628e-020 -3.87848e-018
LeftArm  -25.0247 71.4138 -68.5585
LeftForeArm  22.5753 -0.53954 -1.46219
LeftHand  -12.5298 -11.1912 76.6249
RightShoulder  4.07179 9.47552 18.6429
RightArm  -13.7399 -69.0706 34.1709
RightForeArm  6.2496 4.12826 -7.8297
RightHand  -9.37959 7.82832 -71.211
LeftUpLeg  -91.1094 5.58803 -1.00357
LeftLeg  88.7753 -13.892 11.1627
LeftFoot  10.6497 -0.310058 1.60063
LeftToes  5.91571e-011 -3.44359e-011 -3.93244e-011
99
root  -1.60302 6.11233 14.921 -48.7857 -1.60889 2.67137
RightUpLeg  -83.6522 -6.13203 1.68372
RightLeg  86.4286 15.8237 -8.14526
RightFoot  30.4672 2.77198 -7.2221
RightToes  5.82077e-011 -3.18055e-015 -2.98177e-016
Spine  30.068 3.43024 3.21974
Spine1  20.8478 1.53784 2.06731
HEad  -10.0654 -0.090276 18.8839
LeftShoulder1  -3.88251e-019 9.70628e-020 -3.87848e-018
LeftArm  -24.5286 71.4712 -67.9635
LeftForeArm  22.6181 -0.537456 -1.44734
LeftHand  -12.5585 -11.1859 76.7719
RightShoulder  4.03352 9.46589 18.4315
RightArm  -14.4072 -69.3943 34.9719
RightForeArm  6.52232 3.95882 -7.8403
RightHand  -9.4881 7.82275 -71.8651
LeftUpLeg  -90.5356 5.63112 -0.282157
LeftLeg  89.8863 -13.9314 8.975
LeftFoot  9.10903 -0.0478934 0.384024
LeftToes  5.91571e-011 -3.44359e-011 -3.93244e-011
100
root  -1.56308 6.03378 15.0056 -49.2018 -1.66544 2.83154
RightUpLeg  -83.6388 -6.15942 1.52906
RightLeg  86.8022 15.8725 -8.19355
RightFoot  30.5571 2.6645 -6.94067
RightToes  5.82077e-011 -3.18055e-015 -2.98177e-016
Spine  29.9464 3.32001 3.40281
Spine1  21.3609 1.49797 1.87786
HEad  -10.1688 -0.091386 17.9099
LeftShoulder1  -3.88251e-019 9.70628e-020 -3.87848e-018
LeftArm  -24.4997 71.626 -67.8789
LeftForeArm  22.4374 -0.542743 -1.49172
LeftHand  -12.5362 -11.1486 76.8018
RightShoulder  3.97037 9.41804 18.1339
RightArm  -15.5857 -69.346 36.2948
RightForeArm  6.63569 3.65417 -7.9236
RightHand  -9.40027 7.75475 -71.6293
LeftUpLeg  -89.4754 5.28073 0.121043
LeftLeg  92.0943 -14.1216 7.61132
LeftFoot  9.73117 -0.0591299 0.422191
LeftToes  5.91571e-011 -3.44359e-011 -3.93244e-011
101
root  -1.51189 5.93892 15.1095 -49.2564 -1.18579 3.28828
RightUpLeg  -84.181 -6.32557 0.687212
RightLeg  87.256 15.9281 -8.06702
RightFoot  31.1037 2.557 -6.5881
RightToes  5.82077e-011 -3.18055e-015 -2.98177e-016
Spine  29.3265 3.38426 2.69984
Spine1  22.0534 1.25596 2.04887
HEad  -10.0804 -0.000310865 16.9927
LeftShoulder1  -3.88251e-019 9.70628e-020 -3.87848e-018
LeftArm  -25.0151 71.8907 -68.3972
LeftForeArm  22.1639 -0.540258 -1.50443
LeftHand  -12.433 -11.0606 76.644
RightShoulder  3.94498 9.39496 18.0199
RightArm  -16.1868 -69.042 36.841
RightForeArm  5.90073 3.75517 -8.10145
RightHand  -8.80687 7.31511 -69.9122
LeftUpLeg  -88.1877 4.52894 -0.38232
LeftLeg  93.6457 -14.5063 9.18024
LeftFoot  14.1505 -0.307714 1.41975
LeftToes  5.91571e-011 -3.44359e-011 -3.93244e-011
102
root  -1.45418 5.85979 15.2249 -49.0265 -0.492943 3.76683
RightUpLeg  -84.9849 -6.6507 -0.317735
RightLeg  87.8505 15.9884 -7.57161
RightFoot  31.5528 2.53355 -6.46279
RightToes  5.82077e-011 -3.18055e-015 -2.98177e-016
Spine  28.5446 3.48938 1.53308
Spine1  22.4259 0.855676 2.39497
HEad  -9.58594 0.267743 16.0707
LeftShoulder1  -3.88251e-019 9.70628e-020 -3.87848e-018
LeftArm  -25.7334 72.4355 -69.1436
LeftForeArm  21.7851 -0.540793 -1.54224
LeftHand  -12.3749 -11.0159 76.5382
RightShoulder  4.02658 9.46112 18.3978
RightArm  -15.2544 -68.5634 35.5773
RightForeArm  5.23611 4.12337 -8.2187
RightHand  -8.24332 6.88448 -68.2227
LeftUpLeg  -86.988 3.69294 -1.21634
LeftLeg  93.0598 -14.89 12.9212
LeftFoot  20.8702 -0.814858 2.84462
LeftToes  5.91571e-011 -3.44359e-011 -3.93244e-011
